<?xml version="1.0" encoding="UTF-8"?>
<!-- Generator: Adobe Illustrator 16.0.0, SVG Export Plug-In . SVG Version: 6.00 Build 0)  -->
<!DOCTYPE svg PUBLIC "-//W3C//DTD SVG 1.1//EN" "http://www.w3.org/Graphics/SVG/1.1/DTD/svg11.dtd">
<svg version="1.1" id="Слой_1" xmlns:sketch="http://www.bohemiancoding.com/sketch/ns" xmlns="http://www.w3.org/2000/svg" xmlns:xlink="http://www.w3.org/1999/xlink" x="0px" y="0px" width="39px" height="42px" viewBox="1.687 9.833 39 42" enable-background="new 1.687 9.833 39 42" xml:space="preserve">
<filter width="200%" height="200%" id="filter-1" x="-50%" y="-50%" filterUnits="objectBoundingBox">
	<feOffset dx="2" dy="3" in="SourceAlpha" result="shadowOffsetOuter1"/>
	<feGaussianBlur stdDeviation="0" in="shadowOffsetOuter1" result="shadowBlurOuter1"/>
	
		<feColorMatrix type="matrix" values="0 0 0 0 0.0784313725   0 0 0 0 0.149019608   0 0 0 0 0.266666667  0 0 0 0.181400023 0" in="shadowBlurOuter1" result="shadowMatrixOuter1">
		</feColorMatrix>
	<feMerge>
		<feMergeNode in="shadowMatrixOuter1"/>
		<feMergeNode in="SourceGraphic"/>
	</feMerge>
</filter>
<title>marker</title>
<desc>Created with Sketch.</desc>
<g id="Contact-us" sketch:type="MSPage">
	<g transform="translate(936.000000, 433.000000)" sketch:type="MSLayerGroup">
		<g id="Rectangle-17-_x2B_-BUY-NOW-Copy-8" sketch:type="MSShapeGroup" filter="url(#filter-1)">
			<path id="Rectangle-17_2_" fill="#142644" d="M-909.692-388.631h11.176c0.847,0,1.535-0.644,1.535-1.439v-31.657     c0-0.796-0.687-1.44-1.535-1.44h-33.656c-0.848,0-1.534,0.645-1.534,1.44v31.657c0,0.797,0.687,1.439,1.534,1.439h11.179     c0.064,0.109,0.147,0.21,0.244,0.301l4.316,4.062c0.6,0.563,1.575,0.565,2.174,0l4.318-4.062     C-909.841-388.421-909.761-388.524-909.692-388.631z"/>
		</g>
	</g>
</g>
<g id="Main" sketch:type="MSPage">
	<g id="Desktop-HD" transform="translate(-900.000000, -4009.000000)" sketch:type="MSArtboardGroup">
		<g id="footer" transform="translate(574.000000, 4009.000000)" sketch:type="MSLayerGroup">
			<path id="Fill-1_1_" sketch:type="MSShapeGroup" fill="#FFFFFF" d="M354.166,31.796c-2.367-0.312-4.82-2.31-7.356-5.987     c0.065-0.077,0.189-0.143,0.371-0.195c1.613-0.922,2.419-2.027,2.419-3.314c0-0.975-0.383-1.709-1.15-2.204     c-0.624-0.403-1.471-0.624-2.537-0.663l-4.878,0.039c1.623,0.08,2.655,2.389,2.753,2.616l0.018-1.465     c0-0.078,0.006-0.143,0.019-0.195c0.052-0.221,0.45-0.332,1.19-0.332c0.925,0,1.594,0.189,2.011,0.566     c0.43,0.363,0.645,0.962,0.645,1.794c0,0.818-0.25,1.512-0.752,2.076c-0.5,0.565-1.298,0.848-2.391,0.848h-0.683     c0.475,0.04,0.945,0.457,1.228,0.761h0.002c0.006,0.008,0.012,0.015,0.017,0.021c0.154,0.167,0.248,0.294,0.248,0.294     l-0.002,0.002c0.826,0.998,1.838,2.268,3.035,3.816c0.949,1.119,2.061,1.671,3.336,1.657l3.123-0.02L354.166,31.796     L354.166,31.796z M344.832,17.844h3.679l0.886-3.154c0,0-1.251,2.098-1.852,2.424c-0.6,0.326-1.291,0.469-1.982-1.512     l-0.73-2.085l-0.73,2.085c-0.691,1.981-1.382,1.838-1.983,1.512c-0.6-0.326-1.852-2.424-1.852-2.424l0.886,3.154H344.832z      M332.844,38.353h-1.523v-2.961h0.326v2.66h1.197V38.353z M335.751,36.909c0-0.477,0.126-0.855,0.384-1.139     c0.258-0.287,0.604-0.428,1.046-0.428c0.41,0,0.74,0.141,0.988,0.414c0.249,0.275,0.375,0.637,0.375,1.074     c0,0.477-0.126,0.855-0.379,1.143s-0.594,0.428-1.033,0.428c-0.413,0-0.749-0.141-1.001-0.418     C335.877,37.706,335.751,37.347,335.751,36.909L335.751,36.909z M336.091,36.88c0,0.355,0.097,0.652,0.288,0.879     c0.185,0.234,0.438,0.346,0.753,0.346c0.337,0,0.6-0.105,0.789-0.324c0.19-0.221,0.282-0.516,0.282-0.9s-0.092-0.691-0.272-0.91     s-0.438-0.33-0.773-0.33c-0.322,0-0.58,0.117-0.774,0.35C336.188,36.224,336.091,36.521,336.091,36.88L336.091,36.88z      M344.304,38.353h-0.41l-1.547-2.389c-0.029-0.053-0.063-0.111-0.092-0.188h-0.009c0.009,0.076,0.014,0.213,0.014,0.408v2.168     h-0.326v-2.961h0.429l1.503,2.359c0.073,0.105,0.112,0.17,0.123,0.193h0.004c-0.015-0.098-0.02-0.244-0.02-0.438v-2.115h0.332     V38.353L344.304,38.353z M347.888,38.353v-2.961h0.803c1.042,0,1.562,0.48,1.562,1.445c0,0.457-0.15,0.826-0.447,1.1     c-0.297,0.275-0.681,0.416-1.153,0.416H347.888L347.888,38.353z M348.209,35.692v2.359h0.452c0.395,0,0.7-0.102,0.921-0.316     c0.217-0.215,0.33-0.51,0.33-0.889c0-0.77-0.408-1.154-1.231-1.154H348.209L348.209,35.692z M353.447,36.909     c0-0.477,0.127-0.855,0.383-1.139c0.258-0.287,0.609-0.428,1.047-0.428c0.408,0,0.74,0.141,0.988,0.414     c0.248,0.275,0.375,0.637,0.375,1.074c0,0.477-0.127,0.855-0.379,1.143c-0.254,0.287-0.594,0.428-1.027,0.428     c-0.418,0-0.754-0.141-1.008-0.418C353.574,37.706,353.447,37.347,353.447,36.909L353.447,36.909z M353.787,36.88     c0,0.355,0.098,0.652,0.287,0.879c0.189,0.234,0.438,0.346,0.754,0.346c0.336,0,0.6-0.105,0.789-0.324     c0.189-0.221,0.283-0.516,0.283-0.9s-0.094-0.691-0.273-0.91s-0.438-0.33-0.773-0.33c-0.32,0-0.58,0.117-0.773,0.35     C353.885,36.224,353.787,36.521,353.787,36.88L353.787,36.88z M362,38.353h-0.408l-1.549-2.389     c-0.029-0.053-0.064-0.111-0.092-0.188h-0.01c0.01,0.076,0.014,0.213,0.014,0.408v2.168h-0.326v-2.961h0.43l1.502,2.359     c0.074,0.105,0.113,0.17,0.123,0.193h0.004c-0.014-0.098-0.02-0.244-0.02-0.438v-2.115H362V38.353L362,38.353z"/>
			<path id="Fill-2" sketch:type="MSShapeGroup" fill="#FFFFFF" d="M332.844,38.353h-1.523v-2.961h0.326v2.66h1.197V38.353     L332.844,38.353z M335.751,36.909c0-0.477,0.126-0.855,0.384-1.139c0.258-0.287,0.604-0.428,1.046-0.428     c0.41,0,0.74,0.141,0.988,0.414c0.249,0.275,0.375,0.637,0.375,1.074c0,0.477-0.126,0.855-0.379,1.143s-0.594,0.428-1.033,0.428     c-0.413,0-0.749-0.141-1.001-0.418C335.877,37.706,335.751,37.347,335.751,36.909L335.751,36.909z M336.091,36.88     c0,0.355,0.097,0.652,0.288,0.879c0.185,0.234,0.438,0.346,0.753,0.346c0.337,0,0.6-0.105,0.789-0.324     c0.19-0.221,0.282-0.516,0.282-0.9s-0.092-0.691-0.272-0.91s-0.438-0.33-0.773-0.33c-0.322,0-0.58,0.117-0.774,0.35     C336.188,36.224,336.091,36.521,336.091,36.88L336.091,36.88z M344.304,38.353h-0.41l-1.547-2.389     c-0.029-0.053-0.063-0.111-0.092-0.188h-0.009c0.009,0.076,0.014,0.213,0.014,0.408v2.168h-0.326v-2.961h0.429l1.503,2.359     c0.073,0.105,0.112,0.17,0.123,0.193h0.004c-0.015-0.098-0.02-0.244-0.02-0.438v-2.115h0.332V38.353L344.304,38.353z      M347.888,38.353v-2.961h0.803c1.042,0,1.562,0.48,1.562,1.445c0,0.457-0.15,0.826-0.447,1.1     c-0.297,0.275-0.681,0.416-1.153,0.416H347.888L347.888,38.353z M348.209,35.692v2.359h0.452c0.395,0,0.7-0.102,0.921-0.316     c0.217-0.215,0.33-0.51,0.33-0.889c0-0.77-0.408-1.154-1.231-1.154H348.209L348.209,35.692z M353.447,36.909     c0-0.477,0.127-0.855,0.383-1.139c0.258-0.287,0.609-0.428,1.047-0.428c0.408,0,0.74,0.141,0.988,0.414     c0.248,0.275,0.375,0.637,0.375,1.074c0,0.477-0.127,0.855-0.379,1.143c-0.254,0.287-0.594,0.428-1.027,0.428     c-0.418,0-0.754-0.141-1.008-0.418C353.574,37.706,353.447,37.347,353.447,36.909L353.447,36.909z M353.787,36.88     c0,0.355,0.098,0.652,0.287,0.879c0.189,0.234,0.438,0.346,0.754,0.346c0.336,0,0.6-0.105,0.789-0.324     c0.189-0.221,0.283-0.516,0.283-0.9s-0.094-0.691-0.273-0.91s-0.438-0.33-0.773-0.33c-0.32,0-0.58,0.117-0.773,0.35     C353.885,36.224,353.787,36.521,353.787,36.88L353.787,36.88z M362,38.353h-0.408l-1.549-2.389     c-0.029-0.053-0.064-0.111-0.092-0.188h-0.01c0.01,0.076,0.014,0.213,0.014,0.408v2.168h-0.326v-2.961h0.43l1.502,2.359     c0.074,0.105,0.113,0.17,0.123,0.193h0.004c-0.014-0.098-0.02-0.244-0.02-0.438v-2.115H362V38.353L362,38.353z"/>
		</g>
	</g>
</g>
</svg>